<?xml version="1.0" encoding="UTF-8" standalone="no"?>
<!-- This is a Stata 17.0 generated SVG file (http://www.stata.com) -->

<svg version="1.1" width="5.500in" height="4.000in" viewBox="0 0 3960 2880" xmlns="http://www.w3.org/2000/svg" xmlns:xlink="http://www.w3.org/1999/xlink">
	<desc>Stata Graph - Graph</desc>
	<rect x="0" y="0" width="3960" height="2880" style="fill:#EAF2F3;stroke:none"/>
	<rect x="0.00" y="0.00" width="3959.88" height="2880.00" style="fill:#EAF2F3"/>
	<rect x="2.88" y="2.88" width="3954.12" height="2874.24" style="fill:none;stroke:#EAF2F3;stroke-width:5.76"/>
	<rect x="290.81" y="275.35" width="3568.21" height="2213.83" style="fill:#FFFFFF"/>
	<rect x="293.69" y="278.23" width="3562.45" height="2208.07" style="fill:none;stroke:#FFFFFF;stroke-width:5.76"/>
	<line x1="290.81" y1="2425.82" x2="3859.02" y2="2425.82" style="stroke:#EAF2F3;stroke-width:8.64"/>
	<line x1="290.81" y1="1904.08" x2="3859.02" y2="1904.08" style="stroke:#EAF2F3;stroke-width:8.64"/>
	<line x1="290.81" y1="1382.33" x2="3859.02" y2="1382.33" style="stroke:#EAF2F3;stroke-width:8.64"/>
	<line x1="290.81" y1="860.46" x2="3859.02" y2="860.46" style="stroke:#EAF2F3;stroke-width:8.64"/>
	<line x1="290.81" y1="338.71" x2="3859.02" y2="338.71" style="stroke:#EAF2F3;stroke-width:8.64"/>
	<path d=" M354.05 2425.95 L354.05 2425.95 L354.05 2425.95 L354.05 2425.95 L354.05 2425.95 L354.05 2425.95 L354.05 2425.95 L354.05 2425.95 L354.05 2425.95 L411.47 2425.95 L411.47 2420.87 L454.41 2420.87 L454.41 2418.40 L468.77 2418.40 L468.77 2415.80 L497.48 2415.80 L497.48 2413.32 L511.83 2413.32 L511.83 2408.37 L569.13 2408.37 L569.13 2405.78 L597.84 2405.78 L597.84 2398.23 L626.55 2398.23 L626.55 2395.75 L640.90 2395.75 L640.90 2393.28 L669.61 2393.28 L669.61 2390.68 L741.26 2390.68 L741.26 2388.20 L769.97 2388.20 L769.97 2385.73 L784.33 2385.73 L784.33 2383.13 L827.27 2383.13 L827.27 2380.65 L841.62 2380.65 L841.62 2375.58 L855.98 2375.58 L855.98 2373.10 L899.04 2373.10 L899.04 2370.63 L927.63 2370.63 L927.63 2365.56 L956.34 2365.56 L956.34 2363.08 L970.70 2363.08 L970.70 2360.61 L985.05 2360.61 L985.05 2358.01 L1042.35 2358.01 L1042.35 2355.53 L1056.70 2355.53 L1056.70 2353.06 L1071.06 2353.06 L1071.06 2350.46 L1157.06 2350.46 L1157.06 2347.98 L1243.19 2347.98 L1243.19 2342.91 L1257.55 2342.91 L1257.55 2340.43 L1286.13 2340.43 L1286.13 2337.96 L1300.49 2337.96 L1300.49 2335.48 L1343.55 2335.48 L1343.55 2332.88 L1357.91 2332.88 L1357.91 2327.93 L1386.50 2327.93 L1386.50 2325.34 L1400.85 2325.34 L1400.85 2320.39 L1415.21 2320.39 L1415.21 2312.84 L1515.57 2312.84 L1515.57 2307.76 L1544.28 2307.76 L1544.28 2305.29 L1572.99 2305.29 L1572.99 2300.21 L1587.34 2300.21 L1587.34 2295.26 L1658.99 2295.26 L1658.99 2290.19 L1673.35 2290.19 L1673.35 2285.12 L1702.06 2285.12 L1702.06 2282.64 L1730.77 2282.64 L1730.77 2280.17 L1745.00 2280.17 L1745.00 2277.57 L1773.71 2277.57 L1773.71 2272.62 L1788.06 2272.62 L1788.06 2270.02 L1802.42 2270.02 L1802.42 2265.07 L1859.72 2265.07 L1859.72 2257.52 L1917.14 2257.52 L1917.14 2252.44 L1960.20 2252.44 L1960.20 2249.97 L1974.43 2249.97 L1974.43 2247.49 L1988.79 2247.49 L1988.79 2244.90 L2031.85 2244.90 L2031.85 2237.35 L2060.56 2237.35 L2060.56 2234.87 L2089.27 2234.87 L2089.27 2232.40 L2103.50 2232.40 L2103.50 2229.92 L2117.86 2229.92 L2117.86 2224.85 L2132.21 2224.85 L2132.21 2219.77 L2175.28 2219.77 L2175.28 2217.30 L2203.99 2217.30 L2203.99 2212.22 L2218.22 2212.22 L2218.22 2209.75 L2246.93 2209.75 L2246.93 2202.20 L2261.28 2202.20 L2261.28 2199.72 L2304.35 2199.72 L2304.35 2194.65 L2332.94 2194.65 L2332.94 2189.70 L2376.00 2189.70 L2376.00 2187.10 L2404.71 2187.10 L2404.71 2182.15 L2419.07 2182.15 L2419.07 2179.55 L2433.42 2179.55 L2433.42 2177.08 L2447.65 2177.08 L2447.65 2172.00 L2476.36 2172.00 L2476.36 2167.05 L2490.72 2167.05 L2490.72 2164.46 L2519.43 2164.46 L2519.43 2161.98 L2533.78 2161.98 L2533.78 2157.03 L2576.72 2157.03 L2576.72 2151.96 L2591.08 2151.96 L2591.08 2149.48 L2605.43 2149.48 L2605.43 2146.88 L2619.79 2146.88 L2619.79 2144.41 L2634.14 2144.41 L2634.14 2136.86 L2648.50 2136.86 L2648.50 2131.78 L2705.79 2131.78 L2705.79 2129.31 L2720.15 2129.31 L2720.15 2124.36 L2734.50 2124.36 L2734.50 2121.76 L2763.21 2121.76 L2763.21 2119.28 L2791.92 2119.28 L2791.92 2114.21 L2806.16 2114.21 L2806.16 2111.74 L2820.51 2111.74 L2820.51 2109.26 L2849.22 2109.26 L2849.22 2106.66 L2863.58 2106.66 L2863.58 2101.71 L2877.93 2101.71 L2877.93 2099.11 L2892.29 2099.11 L2892.29 2096.64 L2906.64 2096.64 L2906.64 2094.16 L2935.23 2094.16 L2935.23 2089.09 L2949.58 2089.09 L2949.58 2086.61 L2963.94 2086.61 L2963.94 2084.14 L2978.29 2084.14 L2978.29 2081.54 L3007.00 2081.54 L3007.00 2079.06 L3093.01 2079.06 L3093.01 2073.99 L3121.72 2073.99 L3121.72 2069.04 L3150.30 2069.04 L3150.30 2058.89 L3250.79 2058.89 L3250.79 2053.94 L3265.14 2053.94 L3265.14 2051.47 L3279.38 2051.47 L3279.38 2046.39 L3293.73 2046.39 L3293.73 2041.32 L3322.44 2041.32 L3322.44 2038.84 L3351.15 2038.84 L3351.15 2036.37 L3379.86 2036.37 L3379.86 2028.82 L3408.45 2028.82 L3408.45 2023.75 L3422.80 2023.75 L3422.80 2016.20 L3437.16 2016.20 L3437.16 2011.25 L3451.51 2011.25 L3451.51 2008.65 L3494.58 2008.65 L3494.58 2003.70 L3523.16 2003.70 L3523.16 2001.10 L3551.87 2001.10 L3551.87 1998.62 L3594.94 1998.62 L3594.94 1993.55 L3609.29 1993.55 L3609.29 1988.60 L3623.52 1988.60 L3623.52 1988.60 L3637.88 1988.60 L3637.88 1988.60 L3652.23 1988.60 L3652.23 1986.00 L3666.59 1986.00 L3666.59 1980.43 L3680.94 1980.43 L3680.94 1977.46 L3695.30 1977.46 L3695.30 1977.46 L3709.65 1977.46 L3709.65 1974.12 L3724.01 1974.12 L3724.01 1970.78 L3738.24 1970.78 L3738.24 1970.78 L3752.60 1970.78 L3752.60 1970.78 L3766.95 1970.78 L3766.95 1970.78 L3781.31 1970.78 L3781.31 1970.78 L3795.66 1970.78 L3795.66 1970.78 L3795.66 1970.78 L3795.66 1970.78" stroke-linejoin="round" style="fill:none;stroke:#1A476F;stroke-width:8.64"/>
	<path d=" M354.05 2425.95 L354.05 2425.95 L354.05 2425.95 L354.05 2425.95 L354.05 2425.95 L354.05 2425.95 L354.05 2425.95 L354.05 2425.95 L354.05 2425.95 L368.40 2425.95 L368.40 2424.09 L382.76 2424.09 L382.76 2422.11 L397.11 2422.11 L397.11 2420.25 L425.82 2420.25 L425.82 2418.40 L454.41 2418.40 L454.41 2410.85 L554.90 2410.85 L554.90 2408.99 L569.13 2408.99 L569.13 2405.28 L583.48 2405.28 L583.48 2401.44 L597.84 2401.44 L597.84 2399.59 L640.90 2399.59 L640.90 2397.73 L655.26 2397.73 L655.26 2395.87 L669.61 2395.87 L669.61 2394.02 L683.84 2394.02 L683.84 2392.04 L698.20 2392.04 L698.20 2388.33 L726.91 2388.33 L726.91 2386.47 L798.56 2386.47 L798.56 2384.61 L812.91 2384.61 L812.91 2382.76 L827.27 2382.76 L827.27 2380.78 L841.62 2380.78 L841.62 2378.92 L855.98 2378.92 L855.98 2377.06 L884.69 2377.06 L884.69 2375.21 L913.40 2375.21 L913.40 2373.35 L927.63 2373.35 L927.63 2371.50 L941.99 2371.50 L941.99 2369.52 L956.34 2369.52 L956.34 2367.66 L970.70 2367.66 L970.70 2363.95 L985.05 2363.95 L985.05 2358.25 L999.41 2358.25 L999.41 2356.40 L1028.12 2356.40 L1028.12 2354.54 L1056.70 2354.54 L1056.70 2350.83 L1085.41 2350.83 L1085.41 2348.85 L1099.77 2348.85 L1099.77 2345.14 L1114.12 2345.14 L1114.12 2343.28 L1142.83 2343.28 L1142.83 2341.42 L1171.42 2341.42 L1171.42 2337.59 L1185.77 2337.59 L1185.77 2333.87 L1200.13 2333.87 L1200.13 2330.16 L1214.48 2330.16 L1214.48 2326.33 L1228.84 2326.33 L1228.84 2320.76 L1257.55 2320.76 L1257.55 2316.92 L1271.78 2316.92 L1271.78 2311.35 L1286.13 2311.35 L1286.13 2309.49 L1300.49 2309.49 L1300.49 2305.66 L1314.84 2305.66 L1314.84 2303.80 L1329.20 2303.80 L1329.20 2301.95 L1343.55 2301.95 L1343.55 2298.23 L1357.91 2298.23 L1357.91 2294.40 L1372.26 2294.40 L1372.26 2292.54 L1400.85 2292.54 L1400.85 2286.97 L1415.21 2286.97 L1415.21 2284.99 L1429.56 2284.99 L1429.56 2283.14 L1443.92 2283.14 L1443.92 2281.28 L1458.27 2281.28 L1458.27 2277.57 L1486.98 2277.57 L1486.98 2270.02 L1501.34 2270.02 L1501.34 2266.30 L1515.57 2266.30 L1515.57 2264.32 L1529.92 2264.32 L1529.92 2260.61 L1572.99 2260.61 L1572.99 2258.76 L1587.34 2258.76 L1587.34 2255.04 L1601.70 2255.04 L1601.70 2253.06 L1616.05 2253.06 L1616.05 2249.35 L1630.28 2249.35 L1630.28 2243.66 L1644.64 2243.66 L1644.64 2239.94 L1673.35 2239.94 L1673.35 2236.23 L1687.70 2236.23 L1687.70 2234.38 L1702.06 2234.38 L1702.06 2232.40 L1730.77 2232.40 L1730.77 2230.54 L1745.00 2230.54 L1745.00 2226.83 L1773.71 2226.83 L1773.71 2224.97 L1788.06 2224.97 L1788.06 2223.11 L1802.42 2223.11 L1802.42 2221.13 L1816.77 2221.13 L1816.77 2217.42 L1831.13 2217.42 L1831.13 2215.57 L1845.48 2215.57 L1845.48 2209.87 L1888.43 2209.87 L1888.43 2206.16 L1902.78 2206.16 L1902.78 2200.47 L1917.14 2200.47 L1917.14 2198.61 L1945.85 2198.61 L1945.85 2196.75 L1974.43 2196.75 L1974.43 2191.19 L1988.79 2191.19 L1988.79 2187.35 L2003.14 2187.35 L2003.14 2183.64 L2017.50 2183.64 L2017.50 2181.78 L2031.85 2181.78 L2031.85 2176.09 L2046.21 2176.09 L2046.21 2170.52 L2060.56 2170.52 L2060.56 2166.68 L2089.27 2166.68 L2089.27 2161.11 L2103.50 2161.11 L2103.50 2159.13 L2132.21 2159.13 L2132.21 2153.56 L2160.92 2153.56 L2160.92 2147.87 L2175.28 2147.87 L2175.28 2142.30 L2189.63 2142.30 L2189.63 2136.61 L2218.22 2136.61 L2218.22 2132.90 L2232.57 2132.90 L2232.57 2131.04 L2261.28 2131.04 L2261.28 2129.19 L2304.35 2129.19 L2304.35 2123.49 L2318.70 2123.49 L2318.70 2115.94 L2332.94 2115.94 L2332.94 2114.09 L2347.29 2114.09 L2347.29 2106.66 L2361.65 2106.66 L2361.65 2102.83 L2376.00 2102.83 L2376.00 2100.97 L2390.36 2100.97 L2390.36 2095.28 L2404.71 2095.28 L2404.71 2093.42 L2419.07 2093.42 L2419.07 2091.56 L2433.42 2091.56 L2433.42 2087.85 L2447.65 2087.85 L2447.65 2086.00 L2462.01 2086.00 L2462.01 2084.02 L2476.36 2084.02 L2476.36 2082.16 L2505.07 2082.16 L2505.07 2078.45 L2519.43 2078.45 L2519.43 2076.59 L2548.14 2076.59 L2548.14 2074.73 L2562.37 2074.73 L2562.37 2072.75 L2576.72 2072.75 L2576.72 2070.90 L2591.08 2070.90 L2591.08 2069.04 L2605.43 2069.04 L2605.43 2063.35 L2619.79 2063.35 L2619.79 2061.49 L2634.14 2061.49 L2634.14 2059.64 L2648.50 2059.64 L2648.50 2057.78 L2677.21 2057.78 L2677.21 2055.92 L2720.15 2055.92 L2720.15 2050.23 L2734.50 2050.23 L2734.50 2046.52 L2748.86 2046.52 L2748.86 2042.68 L2763.21 2042.68 L2763.21 2038.97 L2791.92 2038.97 L2791.92 2037.11 L2806.16 2037.11 L2806.16 2033.40 L2820.51 2033.40 L2820.51 2031.42 L2849.22 2031.42 L2849.22 2027.71 L2863.58 2027.71 L2863.58 2023.99 L2877.93 2023.99 L2877.93 2020.16 L2892.29 2020.16 L2892.29 2016.45 L2906.64 2016.45 L2906.64 2012.73 L2920.87 2012.73 L2920.87 2010.75 L2935.23 2010.75 L2935.23 2007.04 L2949.58 2007.04 L2949.58 2005.18 L2963.94 2005.18 L2963.94 1995.78 L2992.65 1995.78 L2992.65 1988.23 L3021.36 1988.23 L3021.36 1986.37 L3049.94 1986.37 L3049.94 1982.66 L3064.30 1982.66 L3064.30 1980.80 L3078.65 1980.80 L3078.65 1975.11 L3093.01 1975.11 L3093.01 1971.40 L3107.36 1971.40 L3107.36 1969.54 L3121.72 1969.54 L3121.72 1967.56 L3136.07 1967.56 L3136.07 1963.85 L3164.66 1963.85 L3164.66 1961.99 L3179.01 1961.99 L3179.01 1960.14 L3193.37 1960.14 L3193.37 1956.30 L3207.72 1956.30 L3207.72 1954.44 L3236.43 1954.44 L3236.43 1946.90 L3250.79 1946.90 L3250.79 1945.04 L3265.14 1945.04 L3265.14 1943.18 L3279.38 1943.18 L3279.38 1941.33 L3293.73 1941.33 L3293.73 1937.61 L3308.09 1937.61 L3308.09 1933.78 L3322.44 1933.78 L3322.44 1931.92 L3336.80 1931.92 L3336.80 1930.07 L3351.15 1930.07 L3351.15 1928.21 L3365.51 1928.21 L3365.51 1924.37 L3379.86 1924.37 L3379.86 1920.66 L3394.09 1920.66 L3394.09 1916.95 L3408.45 1916.95 L3408.45 1913.11 L3422.80 1913.11 L3422.80 1911.25 L3437.16 1911.25 L3437.16 1901.85 L3451.51 1901.85 L3451.51 1894.30 L3465.87 1894.30 L3465.87 1890.59 L3480.22 1890.59 L3480.22 1886.88 L3494.58 1886.88 L3494.58 1883.04 L3508.81 1883.04 L3508.81 1879.33 L3523.16 1879.33 L3523.16 1877.47 L3551.87 1877.47 L3551.87 1873.76 L3566.23 1873.76 L3566.23 1871.78 L3580.58 1871.78 L3580.58 1869.92 L3594.94 1869.92 L3594.94 1868.06 L3609.29 1868.06 L3609.29 1864.35 L3623.52 1864.35 L3623.52 1864.35 L3637.88 1864.35 L3637.88 1862.37 L3652.23 1862.37 L3652.23 1854.58 L3666.59 1854.58 L3666.59 1848.26 L3680.94 1848.26 L3680.94 1846.04 L3695.30 1846.04 L3695.30 1843.69 L3709.65 1843.69 L3709.65 1841.09 L3724.01 1841.09 L3724.01 1835.89 L3738.24 1835.89 L3738.24 1830.32 L3752.60 1830.32 L3752.60 1830.32 L3766.95 1830.32 L3766.95 1823.88 L3781.31 1823.88 L3781.31 1823.88 L3795.66 1823.88 L3795.66 1816.46 L3795.66 1816.46 L3795.66 1816.46" stroke-linejoin="round" style="fill:none;stroke:#90353B;stroke-width:8.64"/>
	<path d=" M354.05 2425.95 L354.05 2425.95 L354.05 2425.95 L354.05 2425.95 L354.05 2425.95 L354.05 2425.95 L354.05 2425.95 L354.05 2425.95 L354.05 2425.95 L397.11 2425.95 L397.11 2422.85 L411.47 2422.85 L411.47 2421.37 L454.41 2421.37 L454.41 2419.76 L468.77 2419.76 L468.77 2418.27 L497.48 2418.27 L497.48 2416.79 L511.83 2416.79 L511.83 2415.30 L540.54 2415.30 L540.54 2410.73 L569.13 2410.73 L569.13 2409.12 L583.48 2409.12 L583.48 2406.15 L597.84 2406.15 L597.84 2403.05 L612.19 2403.05 L612.19 2401.57 L626.55 2401.57 L626.55 2393.89 L640.90 2393.89 L640.90 2383.25 L655.26 2383.25 L655.26 2378.67 L669.61 2378.67 L669.61 2374.09 L683.84 2374.09 L683.84 2371.12 L698.20 2371.12 L698.20 2364.94 L712.55 2364.94 L712.55 2360.48 L726.91 2360.48 L726.91 2357.39 L741.26 2357.39 L741.26 2354.29 L755.62 2354.29 L755.62 2351.32 L769.97 2351.32 L769.97 2348.23 L784.33 2348.23 L784.33 2345.14 L798.56 2345.14 L798.56 2343.65 L812.91 2343.65 L812.91 2340.68 L827.27 2340.68 L827.27 2339.07 L841.62 2339.07 L841.62 2337.59 L855.98 2337.59 L855.98 2334.49 L870.33 2334.49 L870.33 2333.01 L884.69 2333.01 L884.69 2328.43 L899.04 2328.43 L899.04 2323.85 L913.40 2323.85 L913.40 2322.37 L927.63 2322.37 L927.63 2317.79 L956.34 2317.79 L956.34 2316.30 L970.70 2316.30 L970.70 2311.72 L985.05 2311.72 L985.05 2308.63 L999.41 2308.63 L999.41 2304.05 L1013.76 2304.05 L1013.76 2301.08 L1028.12 2301.08 L1028.12 2299.47 L1042.35 2299.47 L1042.35 2296.50 L1056.70 2296.50 L1056.70 2293.41 L1085.41 2293.41 L1085.41 2291.92 L1099.77 2291.92 L1099.77 2290.31 L1114.12 2290.31 L1114.12 2288.83 L1128.48 2288.83 L1128.48 2287.34 L1142.83 2287.34 L1142.83 2279.67 L1157.06 2279.67 L1157.06 2278.18 L1171.42 2278.18 L1171.42 2273.61 L1185.77 2273.61 L1185.77 2270.51 L1200.13 2270.51 L1200.13 2265.93 L1214.48 2265.93 L1214.48 2262.96 L1228.84 2262.96 L1228.84 2259.87 L1243.19 2259.87 L1243.19 2258.38 L1257.55 2258.38 L1257.55 2255.29 L1271.78 2255.29 L1271.78 2252.32 L1286.13 2252.32 L1286.13 2247.74 L1300.49 2247.74 L1300.49 2240.07 L1314.84 2240.07 L1314.84 2237.10 L1329.20 2237.10 L1329.20 2234.00 L1343.55 2234.00 L1343.55 2229.43 L1357.91 2229.43 L1357.91 2221.88 L1372.26 2221.88 L1372.26 2217.30 L1386.50 2217.30 L1386.50 2211.11 L1400.85 2211.11 L1400.85 2209.63 L1415.21 2209.63 L1415.21 2208.14 L1429.56 2208.14 L1429.56 2206.66 L1443.92 2206.66 L1443.92 2203.56 L1472.63 2203.56 L1472.63 2198.98 L1486.98 2198.98 L1486.98 2194.40 L1501.34 2194.40 L1501.34 2189.82 L1515.57 2189.82 L1515.57 2185.25 L1529.92 2185.25 L1529.92 2180.67 L1544.28 2180.67 L1544.28 2176.09 L1558.63 2176.09 L1558.63 2168.54 L1572.99 2168.54 L1572.99 2167.05 L1587.34 2167.05 L1587.34 2163.96 L1601.70 2163.96 L1601.70 2157.90 L1616.05 2157.90 L1616.05 2151.71 L1644.64 2151.71 L1644.64 2147.25 L1658.99 2147.25 L1658.99 2142.67 L1673.35 2142.67 L1673.35 2139.58 L1687.70 2139.58 L1687.70 2133.52 L1702.06 2133.52 L1702.06 2128.94 L1716.41 2128.94 L1716.41 2124.36 L1730.77 2124.36 L1730.77 2122.87 L1745.00 2122.87 L1745.00 2118.29 L1759.35 2118.29 L1759.35 2110.62 L1773.71 2110.62 L1773.71 2107.65 L1788.06 2107.65 L1788.06 2103.07 L1802.42 2103.07 L1802.42 2099.98 L1816.77 2099.98 L1816.77 2098.49 L1831.13 2098.49 L1831.13 2092.43 L1845.48 2092.43 L1845.48 2087.85 L1859.72 2087.85 L1859.72 2083.27 L1874.07 2083.27 L1874.07 2081.66 L1888.43 2081.66 L1888.43 2080.18 L1902.78 2080.18 L1902.78 2075.60 L1917.14 2075.60 L1917.14 2072.63 L1931.49 2072.63 L1931.49 2064.96 L1945.85 2064.96 L1945.85 2063.47 L1960.20 2063.47 L1960.20 2058.89 L1974.43 2058.89 L1974.43 2055.80 L1988.79 2055.80 L1988.79 2052.83 L2003.14 2052.83 L2003.14 2045.16 L2031.85 2045.16 L2031.85 2042.06 L2046.21 2042.06 L2046.21 2040.58 L2060.56 2040.58 L2060.56 2037.48 L2074.92 2037.48 L2074.92 2034.51 L2089.27 2034.51 L2089.27 2028.45 L2103.50 2028.45 L2103.50 2025.36 L2117.86 2025.36 L2117.86 2013.23 L2132.21 2013.23 L2132.21 2011.62 L2146.57 2011.62 L2146.57 2008.65 L2160.92 2008.65 L2160.92 1999.49 L2175.28 1999.49 L2175.28 1997.88 L2189.63 1997.88 L2189.63 1993.43 L2203.99 1993.43 L2203.99 1990.33 L2218.22 1990.33 L2218.22 1988.85 L2232.57 1988.85 L2232.57 1987.24 L2246.93 1987.24 L2246.93 1981.18 L2261.28 1981.18 L2261.28 1979.69 L2275.64 1979.69 L2275.64 1978.21 L2289.99 1978.21 L2289.99 1976.60 L2304.35 1976.60 L2304.35 1975.11 L2318.70 1975.11 L2318.70 1970.53 L2332.94 1970.53 L2332.94 1965.95 L2347.29 1965.95 L2347.29 1964.47 L2376.00 1964.47 L2376.00 1959.89 L2390.36 1959.89 L2390.36 1955.31 L2404.71 1955.31 L2404.71 1953.83 L2419.07 1953.83 L2419.07 1950.73 L2433.42 1950.73 L2433.42 1946.15 L2447.65 1946.15 L2447.65 1943.06 L2462.01 1943.06 L2462.01 1941.57 L2476.36 1941.57 L2476.36 1940.09 L2490.72 1940.09 L2490.72 1935.51 L2519.43 1935.51 L2519.43 1930.93 L2533.78 1930.93 L2533.78 1929.45 L2548.14 1929.45 L2548.14 1927.84 L2576.72 1927.84 L2576.72 1926.35 L2591.08 1926.35 L2591.08 1924.87 L2605.43 1924.87 L2605.43 1921.77 L2619.79 1921.77 L2619.79 1912.62 L2634.14 1912.62 L2634.14 1911.13 L2648.50 1911.13 L2648.50 1909.65 L2662.85 1909.65 L2662.85 1908.04 L2677.21 1908.04 L2677.21 1906.55 L2691.44 1906.55 L2691.44 1900.49 L2705.79 1900.49 L2705.79 1897.39 L2720.15 1897.39 L2720.15 1894.42 L2734.50 1894.42 L2734.50 1891.33 L2748.86 1891.33 L2748.86 1889.85 L2763.21 1889.85 L2763.21 1883.66 L2777.57 1883.66 L2777.57 1879.20 L2791.92 1879.20 L2791.92 1870.04 L2806.16 1870.04 L2806.16 1868.44 L2820.51 1868.44 L2820.51 1865.47 L2834.87 1865.47 L2834.87 1859.40 L2849.22 1859.40 L2849.22 1856.31 L2863.58 1856.31 L2863.58 1851.73 L2877.93 1851.73 L2877.93 1850.24 L2892.29 1850.24 L2892.29 1845.67 L2906.64 1845.67 L2906.64 1842.57 L2920.87 1842.57 L2920.87 1837.99 L2935.23 1837.99 L2935.23 1833.41 L2949.58 1833.41 L2949.58 1828.83 L2978.29 1828.83 L2978.29 1822.77 L2992.65 1822.77 L2992.65 1818.19 L3007.00 1818.19 L3007.00 1813.61 L3021.36 1813.61 L3021.36 1812.13 L3035.59 1812.13 L3035.59 1807.55 L3049.94 1807.55 L3049.94 1800.00 L3078.65 1800.00 L3078.65 1796.91 L3093.01 1796.91 L3093.01 1792.33 L3107.36 1792.33 L3107.36 1790.84 L3121.72 1790.84 L3121.72 1789.23 L3136.07 1789.23 L3136.07 1786.26 L3150.30 1786.26 L3150.30 1781.68 L3164.66 1781.68 L3164.66 1778.59 L3179.01 1778.59 L3179.01 1777.11 L3193.37 1777.11 L3193.37 1771.04 L3222.08 1771.04 L3222.08 1769.43 L3236.43 1769.43 L3236.43 1764.98 L3250.79 1764.98 L3250.79 1763.37 L3265.14 1763.37 L3265.14 1760.40 L3279.38 1760.40 L3279.38 1757.30 L3293.73 1757.30 L3293.73 1751.24 L3308.09 1751.24 L3308.09 1745.18 L3322.44 1745.18 L3322.44 1740.60 L3336.80 1740.60 L3336.80 1738.99 L3351.15 1738.99 L3351.15 1737.50 L3365.51 1737.50 L3365.51 1732.93 L3379.86 1732.93 L3379.86 1731.44 L3394.09 1731.44 L3394.09 1729.96 L3408.45 1729.96 L3408.45 1726.86 L3422.80 1726.86 L3422.80 1722.28 L3437.16 1722.28 L3437.16 1719.19 L3451.51 1719.19 L3451.51 1714.61 L3465.87 1714.61 L3465.87 1710.15 L3480.22 1710.15 L3480.22 1708.55 L3494.58 1708.55 L3494.58 1701.00 L3508.81 1701.00 L3508.81 1696.42 L3523.16 1696.42 L3523.16 1694.81 L3537.52 1694.81 L3537.52 1691.84 L3551.87 1691.84 L3551.87 1688.75 L3566.23 1688.75 L3566.23 1684.17 L3580.58 1684.17 L3580.58 1682.68 L3594.94 1682.68 L3594.94 1678.10 L3609.29 1678.10 L3609.29 1675.01 L3623.52 1675.01 L3623.52 1673.52 L3637.88 1673.52 L3637.88 1665.85 L3652.23 1665.85 L3652.23 1662.63 L3666.59 1662.63 L3666.59 1657.56 L3680.94 1657.56 L3680.94 1653.97 L3695.30 1653.97 L3695.30 1651.99 L3709.65 1651.99 L3709.65 1645.93 L3724.01 1645.93 L3724.01 1643.70 L3738.24 1643.70 L3738.24 1641.47 L3752.60 1641.47 L3752.60 1639.12 L3766.95 1639.12 L3766.95 1633.80 L3781.31 1633.80 L3781.31 1633.80 L3795.66 1633.80 L3795.66 1630.58 L3795.66 1630.58 L3795.66 1630.58" stroke-linejoin="round" style="fill:none;stroke:#55752F;stroke-width:8.64"/>
	<path d=" M354.05 2425.95 L354.05 2425.95 L354.05 2425.95 L354.05 2425.95 L354.05 2425.95 L354.05 2425.95 L354.05 2425.95 L354.05 2425.95 L354.05 2425.95 L368.40 2425.95 L368.40 2420.75 L397.11 2420.75 L397.11 2412.95 L411.47 2412.95 L411.47 2410.35 L454.41 2410.35 L454.41 2407.76 L468.77 2407.76 L468.77 2399.96 L483.12 2399.96 L483.12 2397.36 L497.48 2397.36 L497.48 2394.76 L511.83 2394.76 L511.83 2389.56 L540.54 2389.56 L540.54 2386.96 L554.90 2386.96 L554.90 2384.37 L583.48 2384.37 L583.48 2376.69 L597.84 2376.69 L597.84 2371.50 L612.19 2371.50 L612.19 2368.90 L626.55 2368.90 L626.55 2366.30 L655.26 2366.30 L655.26 2361.10 L669.61 2361.10 L669.61 2358.50 L683.84 2358.50 L683.84 2350.70 L698.20 2350.70 L698.20 2342.91 L712.55 2342.91 L712.55 2335.11 L726.91 2335.11 L726.91 2332.51 L741.26 2332.51 L741.26 2324.72 L755.62 2324.72 L755.62 2319.64 L769.97 2319.64 L769.97 2311.85 L784.33 2311.85 L784.33 2301.45 L798.56 2301.45 L798.56 2298.85 L812.91 2298.85 L812.91 2293.65 L827.27 2293.65 L827.27 2280.66 L841.62 2280.66 L841.62 2275.46 L855.98 2275.46 L855.98 2267.67 L870.33 2267.67 L870.33 2262.47 L884.69 2262.47 L884.69 2252.20 L899.04 2252.20 L899.04 2241.80 L913.40 2241.80 L913.40 2239.20 L941.99 2239.20 L941.99 2234.00 L956.34 2234.00 L956.34 2226.21 L970.70 2226.21 L970.70 2223.61 L985.05 2223.61 L985.05 2218.41 L1013.76 2218.41 L1013.76 2213.21 L1042.35 2213.21 L1042.35 2208.02 L1056.70 2208.02 L1056.70 2205.42 L1071.06 2205.42 L1071.06 2200.34 L1085.41 2200.34 L1085.41 2195.15 L1099.77 2195.15 L1099.77 2187.35 L1114.12 2187.35 L1114.12 2182.15 L1128.48 2182.15 L1128.48 2174.36 L1142.83 2174.36 L1142.83 2163.96 L1157.06 2163.96 L1157.06 2156.16 L1171.42 2156.16 L1171.42 2150.97 L1185.77 2150.97 L1185.77 2143.29 L1200.13 2143.29 L1200.13 2135.50 L1214.48 2135.50 L1214.48 2132.90 L1228.84 2132.90 L1228.84 2125.10 L1243.19 2125.10 L1243.19 2114.71 L1257.55 2114.71 L1257.55 2106.91 L1286.13 2106.91 L1286.13 2096.51 L1300.49 2096.51 L1300.49 2088.72 L1314.84 2088.72 L1314.84 2081.05 L1329.20 2081.05 L1329.20 2070.65 L1343.55 2070.65 L1343.55 2068.05 L1357.91 2068.05 L1357.91 2065.45 L1372.26 2065.45 L1372.26 2062.85 L1386.50 2062.85 L1386.50 2052.46 L1400.85 2052.46 L1400.85 2047.26 L1429.56 2047.26 L1429.56 2042.06 L1443.92 2042.06 L1443.92 2034.27 L1458.27 2034.27 L1458.27 2029.07 L1472.63 2029.07 L1472.63 2018.80 L1486.98 2018.80 L1486.98 2013.60 L1501.34 2013.60 L1501.34 2003.20 L1515.57 2003.20 L1515.57 1995.41 L1529.92 1995.41 L1529.92 1990.21 L1544.28 1990.21 L1544.28 1987.61 L1572.99 1987.61 L1572.99 1979.81 L1587.34 1979.81 L1587.34 1974.62 L1601.70 1974.62 L1601.70 1972.02 L1616.05 1972.02 L1616.05 1964.35 L1630.28 1964.35 L1630.28 1959.15 L1644.64 1959.15 L1644.64 1951.35 L1673.35 1951.35 L1673.35 1943.55 L1687.70 1943.55 L1687.70 1940.96 L1702.06 1940.96 L1702.06 1935.76 L1716.41 1935.76 L1716.41 1930.56 L1730.77 1930.56 L1730.77 1927.96 L1745.00 1927.96 L1745.00 1925.36 L1759.35 1925.36 L1759.35 1917.57 L1788.06 1917.57 L1788.06 1909.89 L1802.42 1909.89 L1802.42 1907.29 L1816.77 1907.29 L1816.77 1896.90 L1845.48 1896.90 L1845.48 1886.50 L1859.72 1886.50 L1859.72 1878.71 L1874.07 1878.71 L1874.07 1873.51 L1888.43 1873.51 L1888.43 1865.71 L1902.78 1865.71 L1902.78 1860.52 L1917.14 1860.52 L1917.14 1855.32 L1931.49 1855.32 L1931.49 1850.24 L1945.85 1850.24 L1945.85 1845.05 L1960.20 1845.05 L1960.20 1839.85 L1974.43 1839.85 L1974.43 1829.45 L1988.79 1829.45 L1988.79 1816.46 L2003.14 1816.46 L2003.14 1811.26 L2017.50 1811.26 L2017.50 1808.66 L2031.85 1808.66 L2031.85 1803.47 L2046.21 1803.47 L2046.21 1798.27 L2060.56 1798.27 L2060.56 1793.19 L2074.92 1793.19 L2074.92 1780.20 L2089.27 1780.20 L2089.27 1777.60 L2103.50 1777.60 L2103.50 1775.00 L2117.86 1775.00 L2117.86 1772.40 L2132.21 1772.40 L2132.21 1769.80 L2146.57 1769.80 L2146.57 1764.61 L2160.92 1764.61 L2160.92 1759.41 L2175.28 1759.41 L2175.28 1754.21 L2203.99 1754.21 L2203.99 1749.01 L2218.22 1749.01 L2218.22 1746.41 L2232.57 1746.41 L2232.57 1741.22 L2246.93 1741.22 L2246.93 1736.02 L2261.28 1736.02 L2261.28 1733.54 L2304.35 1733.54 L2304.35 1725.75 L2318.70 1725.75 L2318.70 1720.55 L2332.94 1720.55 L2332.94 1717.95 L2347.29 1717.95 L2347.29 1715.35 L2361.65 1715.35 L2361.65 1710.15 L2376.00 1710.15 L2376.00 1707.56 L2390.36 1707.56 L2390.36 1699.76 L2404.71 1699.76 L2404.71 1694.56 L2419.07 1694.56 L2419.07 1684.17 L2433.42 1684.17 L2433.42 1681.57 L2447.65 1681.57 L2447.65 1678.97 L2462.01 1678.97 L2462.01 1671.30 L2476.36 1671.30 L2476.36 1666.10 L2505.07 1666.10 L2505.07 1655.70 L2519.43 1655.70 L2519.43 1650.51 L2533.78 1650.51 L2533.78 1647.91 L2548.14 1647.91 L2548.14 1645.31 L2562.37 1645.31 L2562.37 1637.51 L2576.72 1637.51 L2576.72 1629.71 L2605.43 1629.71 L2605.43 1627.12 L2634.14 1627.12 L2634.14 1624.52 L2648.50 1624.52 L2648.50 1621.92 L2662.85 1621.92 L2662.85 1614.25 L2677.21 1614.25 L2677.21 1609.05 L2691.44 1609.05 L2691.44 1601.25 L2705.79 1601.25 L2705.79 1596.05 L2720.15 1596.05 L2720.15 1593.45 L2734.50 1593.45 L2734.50 1588.26 L2748.86 1588.26 L2748.86 1580.46 L2763.21 1580.46 L2763.21 1577.86 L2777.57 1577.86 L2777.57 1575.26 L2791.92 1575.26 L2791.92 1572.66 L2806.16 1572.66 L2806.16 1564.87 L2820.51 1564.87 L2820.51 1562.27 L2834.87 1562.27 L2834.87 1557.19 L2863.58 1557.19 L2863.58 1552.00 L2877.93 1552.00 L2877.93 1546.80 L2892.29 1546.80 L2892.29 1544.20 L2920.87 1544.20 L2920.87 1539.00 L2935.23 1539.00 L2935.23 1536.40 L2949.58 1536.40 L2949.58 1526.01 L2963.94 1526.01 L2963.94 1523.41 L2978.29 1523.41 L2978.29 1518.21 L2992.65 1518.21 L2992.65 1515.61 L3007.00 1515.61 L3007.00 1510.42 L3021.36 1510.42 L3021.36 1507.82 L3035.59 1507.82 L3035.59 1502.62 L3049.94 1502.62 L3049.94 1500.14 L3064.30 1500.14 L3064.30 1494.95 L3078.65 1494.95 L3078.65 1489.75 L3093.01 1489.75 L3093.01 1484.55 L3107.36 1484.55 L3107.36 1476.75 L3150.30 1476.75 L3150.30 1474.16 L3164.66 1474.16 L3164.66 1471.56 L3179.01 1471.56 L3179.01 1468.96 L3193.37 1468.96 L3193.37 1466.36 L3207.72 1466.36 L3207.72 1458.56 L3236.43 1458.56 L3236.43 1455.96 L3250.79 1455.96 L3250.79 1448.17 L3265.14 1448.17 L3265.14 1442.97 L3279.38 1442.97 L3279.38 1435.30 L3293.73 1435.30 L3293.73 1432.70 L3322.44 1432.70 L3322.44 1427.50 L3336.80 1427.50 L3336.80 1422.30 L3351.15 1422.30 L3351.15 1417.11 L3379.86 1417.11 L3379.86 1414.51 L3394.09 1414.51 L3394.09 1411.91 L3408.45 1411.91 L3408.45 1409.31 L3422.80 1409.31 L3422.80 1404.11 L3437.16 1404.11 L3437.16 1398.91 L3451.51 1398.91 L3451.51 1396.31 L3465.87 1396.31 L3465.87 1393.72 L3480.22 1393.72 L3480.22 1391.12 L3494.58 1391.12 L3494.58 1388.52 L3508.81 1388.52 L3508.81 1380.85 L3523.16 1380.85 L3523.16 1373.05 L3537.52 1373.05 L3537.52 1367.85 L3551.87 1367.85 L3551.87 1362.65 L3566.23 1362.65 L3566.23 1357.46 L3580.58 1357.46 L3580.58 1354.86 L3594.94 1354.86 L3594.94 1349.66 L3609.29 1349.66 L3609.29 1347.06 L3623.52 1347.06 L3623.52 1341.86 L3637.88 1341.86 L3637.88 1336.67 L3652.23 1336.67 L3652.23 1331.34 L3666.59 1331.34 L3666.59 1328.50 L3680.94 1328.50 L3680.94 1325.53 L3695.30 1325.53 L3695.30 1319.09 L3709.65 1319.09 L3709.65 1312.41 L3724.01 1312.41 L3724.01 1308.94 L3738.24 1308.94 L3738.24 1301.64 L3752.60 1301.64 L3752.60 1301.64 L3766.95 1301.64 L3766.95 1293.60 L3781.31 1293.60 L3781.31 1289.27 L3795.66 1289.27 L3795.66 1284.19 L3795.66 1284.19 L3795.66 1284.19" stroke-linejoin="round" style="fill:none;stroke:#E37E00;stroke-width:8.64"/>
	<path d=" M354.05 2425.95 L354.05 2425.95 L354.05 2425.95 L354.05 2425.95 L354.05 2425.95 L354.05 2425.95 L354.05 2425.95 L354.05 2425.95 L354.05 2425.95 L368.40 2425.95 L368.40 2416.91 L382.76 2416.91 L382.76 2398.97 L397.11 2398.97 L397.11 2371.99 L411.47 2371.99 L411.47 2353.92 L440.18 2353.92 L440.18 2344.89 L454.41 2344.89 L454.41 2326.94 L468.77 2326.94 L468.77 2290.93 L497.48 2290.93 L497.48 2263.95 L511.83 2263.95 L511.83 2246.01 L526.18 2246.01 L526.18 2219.03 L540.54 2219.03 L540.54 2200.96 L554.90 2200.96 L554.90 2183.02 L569.13 2183.02 L569.13 2137.97 L583.48 2137.97 L583.48 2120.03 L612.19 2120.03 L612.19 2093.05 L640.90 2093.05 L640.90 2084.02 L655.26 2084.02 L655.26 2075.10 L669.61 2075.10 L669.61 2066.07 L683.84 2066.07 L683.84 2048.13 L698.20 2048.13 L698.20 2039.09 L712.55 2039.09 L712.55 2012.11 L726.91 2012.11 L726.91 1994.05 L741.26 1994.05 L741.26 1976.10 L769.97 1976.10 L769.97 1967.07 L784.33 1967.07 L784.33 1949.12 L812.91 1949.12 L812.91 1922.15 L827.27 1922.15 L827.27 1913.11 L841.62 1913.11 L841.62 1904.08 L870.33 1904.08 L870.33 1886.13 L899.04 1886.13 L899.04 1859.15 L927.63 1859.15 L927.63 1841.21 L941.99 1841.21 L941.99 1814.11 L956.34 1814.11 L956.34 1805.20 L970.70 1805.20 L970.70 1787.13 L999.41 1787.13 L999.41 1778.22 L1013.76 1778.22 L1013.76 1760.15 L1028.12 1760.15 L1028.12 1733.17 L1056.70 1733.17 L1056.70 1697.16 L1071.06 1697.16 L1071.06 1679.22 L1085.41 1679.22 L1085.41 1661.27 L1099.77 1661.27 L1099.77 1643.20 L1114.12 1643.20 L1114.12 1634.29 L1128.48 1634.29 L1128.48 1616.23 L1171.42 1616.23 L1171.42 1607.19 L1200.13 1607.19 L1200.13 1589.25 L1214.48 1589.25 L1214.48 1553.23 L1228.84 1553.23 L1228.84 1535.29 L1257.55 1535.29 L1257.55 1517.35 L1300.49 1517.35 L1300.49 1508.31 L1314.84 1508.31 L1314.84 1490.24 L1357.91 1490.24 L1357.91 1472.30 L1400.85 1472.30 L1400.85 1454.36 L1415.21 1454.36 L1415.21 1427.38 L1429.56 1427.38 L1429.56 1418.34 L1443.92 1418.34 L1443.92 1409.31 L1472.63 1409.31 L1472.63 1400.40 L1486.98 1400.40 L1486.98 1391.36 L1501.34 1391.36 L1501.34 1382.33 L1515.57 1382.33 L1515.57 1373.30 L1529.92 1373.30 L1529.92 1355.35 L1572.99 1355.35 L1572.99 1346.32 L1587.34 1346.32 L1587.34 1337.41 L1616.05 1337.41 L1616.05 1319.34 L1644.64 1319.34 L1644.64 1310.43 L1687.70 1310.43 L1687.70 1292.36 L1702.06 1292.36 L1702.06 1274.42 L1716.41 1274.42 L1716.41 1256.35 L1730.77 1256.35 L1730.77 1247.44 L1773.71 1247.44 L1773.71 1238.40 L1788.06 1238.40 L1788.06 1229.37 L1831.13 1229.37 L1831.13 1220.46 L1859.72 1220.46 L1859.72 1211.43 L1874.07 1211.43 L1874.07 1193.48 L1917.14 1193.48 L1917.14 1157.47 L1960.20 1157.47 L1960.20 1139.40 L2017.50 1139.40 L2017.50 1130.49 L2031.85 1130.49 L2031.85 1112.42 L2046.21 1112.42 L2046.21 1094.48 L2074.92 1094.48 L2074.92 1085.45 L2089.27 1085.45 L2089.27 1067.50 L2117.86 1067.50 L2117.86 1058.47 L2132.21 1058.47 L2132.21 1049.43 L2146.57 1049.43 L2146.57 1022.45 L2175.28 1022.45 L2175.28 1004.51 L2189.63 1004.51 L2189.63 986.57 L2261.28 986.57 L2261.28 977.53 L2304.35 977.53 L2304.35 959.46 L2332.94 959.46 L2332.94 950.55 L2347.29 950.55 L2347.29 932.49 L2376.00 932.49 L2376.00 923.58 L2404.71 923.58 L2404.71 914.54 L2462.01 914.54 L2462.01 905.51 L2490.72 905.51 L2490.72 896.60 L2533.78 896.60 L2533.78 887.56 L2605.43 887.56 L2605.43 878.53 L2634.14 878.53 L2634.14 869.62 L2648.50 869.62 L2648.50 860.58 L2691.44 860.58 L2691.44 851.55 L2705.79 851.55 L2705.79 842.52 L2720.15 842.52 L2720.15 833.61 L2834.87 833.61 L2834.87 824.57 L2863.58 824.57 L2863.58 815.54 L2920.87 815.54 L2920.87 797.59 L2935.23 797.59 L2935.23 788.56 L2949.58 788.56 L2949.58 779.65 L3035.59 779.65 L3035.59 770.62 L3049.94 770.62 L3049.94 752.55 L3093.01 752.55 L3093.01 743.64 L3164.66 743.64 L3164.66 734.60 L3179.01 734.60 L3179.01 725.57 L3250.79 725.57 L3250.79 716.66 L3265.14 716.66 L3265.14 707.62 L3279.38 707.62 L3279.38 698.59 L3322.44 698.59 L3322.44 689.68 L3365.51 689.68 L3365.51 680.65 L3379.86 680.65 L3379.86 671.61 L3408.45 671.61 L3408.45 662.70 L3422.80 662.70 L3422.80 653.67 L3437.16 653.67 L3437.16 644.63 L3537.52 644.63 L3537.52 635.60 L3551.87 635.60 L3551.87 626.69 L3566.23 626.69 L3566.23 617.66 L3580.58 617.66 L3580.58 581.64 L3594.94 581.64 L3594.94 572.73 L3637.88 572.73 L3637.88 563.70 L3652.23 563.70 L3652.23 563.70 L3666.59 563.70 L3666.59 553.67 L3680.94 553.67 L3680.94 553.67 L3695.30 553.67 L3695.30 553.67 L3709.65 553.67 L3709.65 541.79 L3724.01 541.79 L3724.01 541.79 L3738.24 541.79 L3738.24 541.79 L3752.60 541.79 L3752.60 541.79 L3766.95 541.79 L3766.95 513.45 L3781.31 513.45 L3781.31 513.45 L3795.66 513.45 L3795.66 513.45 L3795.66 513.45 L3795.66 513.45" stroke-linejoin="round" style="fill:none;stroke:#6E8E84;stroke-width:8.64"/>
	<line x1="290.81" y1="2489.19" x2="290.81" y2="275.35" style="stroke:#000000;stroke-width:5.76"/>
	<line x1="290.81" y1="2425.82" x2="250.84" y2="2425.82" style="stroke:#000000;stroke-width:5.76"/>
	<text x="200.73" y="2425.82" style="font-family:'Helvetica';font-size:99.99px;fill:#000000" transform="rotate(-90 200.73,2425.82)" text-anchor="middle">0</text>
	<line x1="290.81" y1="1904.08" x2="250.84" y2="1904.08" style="stroke:#000000;stroke-width:5.76"/>
	<text x="200.73" y="1904.08" style="font-family:'Helvetica';font-size:99.99px;fill:#000000" transform="rotate(-90 200.73,1904.08)" text-anchor="middle">20</text>
	<line x1="290.81" y1="1382.33" x2="250.84" y2="1382.33" style="stroke:#000000;stroke-width:5.76"/>
	<text x="200.73" y="1382.33" style="font-family:'Helvetica';font-size:99.99px;fill:#000000" transform="rotate(-90 200.73,1382.33)" text-anchor="middle">40</text>
	<line x1="290.81" y1="860.46" x2="250.84" y2="860.46" style="stroke:#000000;stroke-width:5.76"/>
	<text x="200.73" y="860.46" style="font-family:'Helvetica';font-size:99.99px;fill:#000000" transform="rotate(-90 200.73,860.46)" text-anchor="middle">60</text>
	<line x1="290.81" y1="338.71" x2="250.84" y2="338.71" style="stroke:#000000;stroke-width:5.76"/>
	<text x="200.73" y="338.71" style="font-family:'Helvetica';font-size:99.99px;fill:#000000" transform="rotate(-90 200.73,338.71)" text-anchor="middle">80</text>
	<line x1="290.81" y1="2489.19" x2="3859.02" y2="2489.19" style="stroke:#000000;stroke-width:5.76"/>
	<line x1="354.17" y1="2489.19" x2="354.17" y2="2529.16" style="stroke:#000000;stroke-width:5.76"/>
	<text x="354.17" y="2619.14" style="font-family:'Helvetica';font-size:99.99px;fill:#000000" text-anchor="middle">0</text>
	<line x1="1214.48" y1="2489.19" x2="1214.48" y2="2529.16" style="stroke:#000000;stroke-width:5.76"/>
	<text x="1214.48" y="2619.14" style="font-family:'Helvetica';font-size:99.99px;fill:#000000" text-anchor="middle">5</text>
	<line x1="2074.92" y1="2489.19" x2="2074.92" y2="2529.16" style="stroke:#000000;stroke-width:5.76"/>
	<text x="2074.92" y="2619.14" style="font-family:'Helvetica';font-size:99.99px;fill:#000000" text-anchor="middle">10</text>
	<line x1="2935.35" y1="2489.19" x2="2935.35" y2="2529.16" style="stroke:#000000;stroke-width:5.76"/>
	<text x="2935.35" y="2619.14" style="font-family:'Helvetica';font-size:99.99px;fill:#000000" text-anchor="middle">15</text>
	<line x1="3795.66" y1="2489.19" x2="3795.66" y2="2529.16" style="stroke:#000000;stroke-width:5.76"/>
	<text x="3795.66" y="2619.14" style="font-family:'Helvetica';font-size:99.99px;fill:#000000" text-anchor="middle">20</text>
	<text x="2074.92" y="2729.16" style="font-family:'Helvetica';font-size:99.99px;fill:#000000" text-anchor="middle">Analysis time</text>
	<rect x="325.34" y="309.88" width="2005.12" height="466.43" style="fill:#FFFFFF"/>
	<rect x="328.22" y="312.76" width="1999.36" height="460.67" style="fill:none;stroke:#000000;stroke-width:5.76"/>
	<line x1="368.53" y1="403.07" x2="742.87" y2="403.07" style="stroke:#6E8E84;stroke-width:8.64"/>
	<line x1="1354.20" y1="403.07" x2="1728.54" y2="403.07" style="stroke:#E37E00;stroke-width:8.64"/>
	<line x1="368.53" y1="543.16" x2="742.87" y2="543.16" style="stroke:#55752F;stroke-width:8.64"/>
	<line x1="1354.20" y1="543.16" x2="1728.54" y2="543.16" style="stroke:#90353B;stroke-width:8.64"/>
	<line x1="368.53" y1="683.12" x2="742.87" y2="683.12" style="stroke:#1A476F;stroke-width:8.64"/>
	<text x="802.89" y="438.09" style="font-family:'Helvetica';font-size:99.99px;fill:#000000">Poor</text>
	<text x="1788.56" y="438.09" style="font-family:'Helvetica';font-size:99.99px;fill:#000000">Fair</text>
	<text x="802.89" y="578.18" style="font-family:'Helvetica';font-size:99.99px;fill:#000000">Good</text>
	<text x="1788.56" y="578.18" style="font-family:'Helvetica';font-size:99.99px;fill:#000000">Very Good</text>
	<text x="802.89" y="718.15" style="font-family:'Helvetica';font-size:99.99px;fill:#000000">Excellent</text>
	<text x="2074.92" y="215.98" style="font-family:'Helvetica';font-size:139.96px;fill:#1E2D53" text-anchor="middle">Self-Reported Health and Mortality</text>
</svg>
